<?xml version="1.0" encoding="UTF-8"?>
<svg id="Livello_1" xmlns="http://www.w3.org/2000/svg" version="1.1" viewBox="0 0 1200 369.3">
  <!-- Generator: Adobe Illustrator 29.7.0, SVG Export Plug-In . SVG Version: 2.1.1 Build 138)  -->
  <defs>
    <style>
      .st0 {
        fill: #94c021;
      }

      .st1 {
        fill: #0c5da7;
      }
    </style>
  </defs>
  <path class="st0" d="M179.4,29.6c-33.4,28.4-38.4,76.9-72.5,106.2-17.5,15-39.1,21.5-61.2,26.3-10.9,31.2-1.6,64.9,27.4,81.9,2.5,1.5,12.5,6.9,14.8,5.5s4-6.9,5.8-8.5c10.7-9.7,28-7.6,36.1,4.1,6.1,8.8,3.2,18.1,5.3,27.8,9,41.5,73.5,41.3,90.3,6.2,5.3-11,2.1-23.7,10.5-32.7,8.6-9.2,22.2-10.5,32.2-2.7,13.9,10.6,7.5,23.6,12.2,37.4,4.1,11.9,13.2,20.6,25,24.7s28.4,0,36.5,15c12.5,23.1-14.2,46.5-35.7,31.5-12.6-8.8-7.8-23.2-11.4-35.9-11.2-39.2-73.7-37.4-89.5-4.1-5.9,12.5-1.3,28-14.1,36.6-8.7,5.9-21.5,5.2-29.7-1.3-14.8-11.8-1.9-37.5-23.4-54.7-11.9-9.6-21.3-7.6-34.7-10.3-13.5-2.8-20.4-19.4-16.3-32-55.6-2.4-68-64.3-52.8-108.4,7-20.2,24.5-44,40.6-57.9,2.6-2.2,8.8-4,9.4-8.8-3.6.4-6.3,4.1-9,5.9-29.1,20.2-53.4,41.7-60,78.6-.3,1.5.6,1.6-1.8,1.4-6.8-38.8-6.7-76.6,18.4-108.9C61.2,14.9,133.4,3.4,176.7,18.1s12.9,4,9.6,6.9-4.8,2.7-6.9,4.6Z"/>
  <g>
    <path class="st1" d="M137.6,114.6c18.6.7,38-1,56.6,0,13.7.7,30.9,2.8,39.9,14.3,10.5,13.4,5.8,34.4-9.2,42.2,11.2,5.7,19.2,12.3,20.3,25.7,2.2,27.6-20.4,35.1-43.7,36.4-20.9,1.2-42.9-1-63.9,0v-118.5ZM164.3,163.3h34.5c.7,0,5.6-2,6.6-2.6,9.4-5.4,9.4-18.4-.4-22.9s-5.9-2.1-6.2-2.1h-34.5v27.6ZM164.3,212h40c1.8,0,8.6-3.1,10.1-4.6,4.3-4.3,4.5-13.8.9-18.3s-8.3-5.6-10.1-5.6h-40.9v28.5Z"/>
    <path class="st1" d="M903.1,108.2v69.8l38.1-35.8h30.8l-36.7,38.9,40.4,52.1h-32.2c-8.4-12.4-19-23.7-28-35.8-1.3,2-12.4,11.5-12.4,12.4v23.4h-26.7v-125h26.7Z"/>
    <path class="st1" d="M862.7,195.5h-65.7c-.1,0-2.2-1.8-2.3.4-.2,4.7,8.6,12.9,12.9,14.7,12.7,5.4,25.4,1.6,36.2-5.9,1.3,3.2,14.1,13.1,13,15.6s-14.3,10-18.2,11.3c-29.4,9.4-67.1-4.7-70.4-38.5-6.9-70.1,106.2-68.9,94.5,2.4ZM838.8,179.9c-3.3-25.5-41.7-25.5-44.1,0h44.1Z"/>
    <path class="st1" d="M339.6,141.5c23.9-3,50.1,6.5,57.5,31.2,12.4,41.4-25.7,70.4-64.6,59.1-47.9-13.9-41.3-84.1,7.1-90.3ZM346,162.7c-28.5,3.7-25.3,51.3,4.2,50.2,31.3-1.1,29.4-54.6-4.2-50.2Z"/>
    <path class="st1" d="M1148.5,179.9c-.3-18.3-18.3-19.8-32.5-16.4-5.6,1.3-10,5.1-15.2,6.3-.2-3.8-9.5-15.8-7.9-18.3s7.6-4.5,9.5-5.3c27.4-11.1,72.8-6.5,72.8,31.5v55.6h-24.8v-11c-18.4,24-71.1,11.4-60.4-24.1,2.8-9.4,16.5-18.2,25.9-18.2h32.6ZM1148.5,194.6h-20.7c-3.9,0-11.6,3.1-12.9,7.3-5,16.3,20.8,18.7,30.3,8.2,4.4-4.8,3.3-9.4,3.3-15.5Z"/>
    <path class="st1" d="M551.2,179.9c0-19.9-22.5-20.1-36.7-15.1-2.3.8-9.8,5.8-11,5-1.2-5.5-5.9-10.8-7.8-15.6s9.4-8,12.8-9.2c26.5-9.1,69.4-4.3,69.4,31.7v56.5h-24.8v-11s-5.1,5.5-5.1,5.5c-14.5,10.6-42.6,9-52.6-7-7.8-12.5-4.1-29.6,9.3-36.3,2-1,12.3-4.4,13.9-4.4h32.6ZM551.2,194.6h-20.7c-3.9,0-11.6,3.1-12.9,7.3-5,16.2,20.5,18.5,29.9,8.8s3.8-9.9,3.7-16.1Z"/>
    <path class="st1" d="M1075,233.2h-25.3c-.2,0-1.1-.9-1.2-1.3,2.1-7.5-.1-15.7-.3-23s1.6-23.5-.4-32.7c-3.4-15.8-27.7-16.2-35.3-3-1.5,2.6-3.9,9.1-3.9,11.8v48.2h-25.7v-91h24.8v10.1c14.6-14.8,46-16,59.2,1,2.5,3.3,7.9,14.1,7.9,17.8v62Z"/>
    <path class="st1" d="M689,233.2h-25.7v-51c0-.9-1.5-6.8-2-8.1-6-16-32-12.4-36.6,3.4s-1.8,7.9-1.8,9.2v46.4h-25.7v-91h24.8v10.1c14.6-15.1,47.5-15.9,60.1,1.9,2,2.9,7,13.8,7,16.9v62Z"/>
    <path class="st1" d="M473.9,167.9c-7.4-6.3-38-11.1-42.5-1.6s24.1,12.4,30.6,14c17.8,4.5,29.5,16.9,21,35.7s-59.9,20.5-79.8,8.9l8.9-18.4c5.3,1,9.5,3.9,14.8,5.3,7.2,2,32.3,5.8,33.3-4.9.3-3.3-1.7-5.1-4.6-6.4-14.3-6.5-45.5-1.1-49.4-24.1-6.7-39.7,52.7-41.9,76-27.3l-8.2,18.7Z"/>
    <path class="st1" d="M738.6,122v22.1h22.1v21.1h-22.1v40c0,.4,2.5,5.2,3,5.7,4.6,4.3,13.9,1.6,19-.6-.2,3.6,6.7,15.6,6.3,17.8-.6,3.1-12.3,5.7-15.1,6-13.5,1.4-29.8-1.7-36.4-14.9-.8-1.6-3.5-9.1-3.5-10.3v-43.7c-4.6-.1-9.3.6-13.8-.9v-20.2h13.8v-22.1h26.7Z"/>
    <rect class="st1" x="259.8" y="142.2" width="26.7" height="91"/>
    <path class="st1" d="M267.9,101.1c9.6-1.8,20.5,1,21.4,12.1,2.1,25.4-41,20-31.2-4.5,1.4-3.5,6-7,9.8-7.7Z"/>
  </g>
</svg>